<?xml version="1.0" encoding="iso-8859-1"?>
<!-- Generator: Adobe Illustrator 16.0.0, SVG Export Plug-In . SVG Version: 6.00 Build 0)  -->
<!DOCTYPE svg PUBLIC "-//W3C//DTD SVG 1.1//EN" "http://www.w3.org/Graphics/SVG/1.1/DTD/svg11.dtd">
<svg version="1.1" id="Capa_1" xmlns="http://www.w3.org/2000/svg" xmlns:xlink="http://www.w3.org/1999/xlink" x="0px" y="0px"
	 width="619.623px" height="619.623px" viewBox="0 0 619.623 619.623" style="enable-background:new 0 0 619.623 619.623;"
	 xml:space="preserve">
<g>
	<g>
		<defs>
			<rect id="SVGID_1_" y="26.528" width="619.623" height="566.567"/>
		</defs>
		<clipPath id="SVGID_2_">
			<use xlink:href="#SVGID_1_"  style="overflow:visible;"/>
		</clipPath>
		<path style="clip-path:url(#SVGID_2_);fill:#27241F;" d="M550.449,209.91c-31.098-58.427-100.935-88.036-100.935-88.036
			C600.548,54.322,562.585,151.464,550.449,209.91L550.449,209.91z M72.691,209.91c-12.136-58.446-50.088-155.588,100.94-88.036
			C173.631,121.874,103.808,151.483,72.691,209.91L72.691,209.91z M619.035,43.575c4.059-21.11-14.373-16.63-20.062-14.776
			l-1.707,0.574l-0.019,0.019L418.55,89.786c0,0,0,0-0.02,0c-13.975,4.707-29.391,1.564-29.391,1.564s0,0.166,0,0.204
			c-24.519-6.068-50.245-9.571-76.991-9.571c-29.325,0-57.437,4.229-84.073,11.491c-0.232,0.033-0.341-0.104-0.574-0.057
			c-6.153,1.621-16.786,0-16.786,0L16.544,27.747h-0.019C-1.901,21.527,0.062,41.138,0.062,41.138l42.262,177.295
			c0,0,2.669,20.389-2.275,33.989c-0.142,0.36,0.028,0.583-0.057,0.925c-10.42,26.395-16.397,54.639-16.397,84.187
			c0,141.145,129.184,255.562,288.564,255.562c159.391,0,288.579-114.417,288.579-255.562c0-27.509-5.31-53.81-14.431-78.607
			c-0.095-0.408-0.019-0.726-0.17-1.152c-3.926-11.42-1.423-36.664-1.423-36.664L619.035,43.575L619.035,43.575z"/>
	</g>
</g>
<g>
</g>
<g>
</g>
<g>
</g>
<g>
</g>
<g>
</g>
<g>
</g>
<g>
</g>
<g>
</g>
<g>
</g>
<g>
</g>
<g>
</g>
<g>
</g>
<g>
</g>
<g>
</g>
<g>
</g>
</svg>
